<svg width="44" height="44" viewBox="0 0 44 44" fill="none" xmlns="http://www.w3.org/2000/svg">
<rect width="43.4849" height="43.9522" rx="21.7424" fill="#FF2D2D"/>
<path d="M27.0457 12.4392C27.3269 12.7205 27.4849 13.1019 27.4849 13.4997C27.4849 13.8974 27.3269 14.2789 27.0457 14.5602L19.6207 21.9852L27.0457 29.4102C27.3189 29.6931 27.4701 30.072 27.4667 30.4653C27.4633 30.8586 27.3055 31.2348 27.0274 31.5129C26.7493 31.791 26.3731 31.9488 25.9798 31.9522C25.5865 31.9556 25.2076 31.8044 24.9247 31.5312L16.4392 23.0457C16.158 22.7644 16 22.3829 16 21.9852C16 21.5874 16.158 21.206 16.4392 20.9247L24.9247 12.4392C25.206 12.158 25.5874 12 25.9852 12C26.3829 12 26.7644 12.158 27.0457 12.4392Z" fill="white"/>
</svg>
