<svg width="25" height="24" viewBox="0 0 25 24" fill="none" xmlns="http://www.w3.org/2000/svg">
<path fill-rule="evenodd" clip-rule="evenodd" d="M10.1079 21H14.4723C17.5374 21 19.0705 21 20.1714 20.265C20.6464 19.948 21.0556 19.5389 21.3755 19.061C22.111 17.961 22.111 16.428 22.111 13.364C22.111 10.299 22.111 8.76705 21.3755 7.66705C21.0556 7.18916 20.6465 6.78005 20.1714 6.46305C19.4643 5.99005 18.5785 5.82105 17.2222 5.76105C16.575 5.76105 16.0182 5.27105 15.8915 4.63605C15.7946 4.17092 15.5431 3.75408 15.1793 3.456C14.8155 3.15791 14.3618 2.99686 13.8949 3.00005H10.6854C9.7151 3.00005 8.87934 3.68505 8.68881 4.63605C8.56212 5.27105 8.00528 5.76105 7.35808 5.76105C6.0028 5.82105 5.11695 5.99105 4.40887 6.46305C3.93414 6.78011 3.52535 7.18922 3.20581 7.66705C2.46924 8.76705 2.46924 10.299 2.46924 13.364C2.46924 16.428 2.46924 17.96 3.20482 19.061C3.52302 19.537 3.93157 19.946 4.40887 20.265C5.50979 21 7.04283 21 10.1079 21ZM12.2901 9.27305C10.0303 9.27305 8.19777 11.104 8.19777 13.363C8.19777 15.623 10.0303 17.455 12.2901 17.455C14.5499 17.455 16.3825 15.623 16.3825 13.364C16.3825 11.104 14.5499 9.27305 12.2901 9.27305ZM12.2901 10.909C10.9349 10.909 9.83491 12.008 9.83491 13.364C9.83491 14.719 10.9349 15.818 12.2901 15.818C13.6454 15.818 14.7454 14.719 14.7454 13.364C14.7454 12.008 13.6454 10.909 12.2901 10.909ZM16.9276 10.091C16.9276 9.63905 17.2939 9.27305 17.7466 9.27305H18.8367C19.2885 9.27305 19.6558 9.63905 19.6558 10.091C19.6537 10.3099 19.5664 10.5191 19.413 10.6724C19.2596 10.8258 19.0527 10.9109 18.8377 10.909H17.7466C17.6401 10.9101 17.5344 10.8898 17.4356 10.8492C17.3368 10.8087 17.2468 10.7487 17.1707 10.6728C17.0946 10.5968 17.034 10.5064 16.9923 10.4065C16.9506 10.3067 16.9286 10.1995 16.9276 10.091Z" fill="black"/>
</svg>
