<svg width="18" height="18" viewBox="0 0 18 18" fill="none" xmlns="http://www.w3.org/2000/svg">
<path d="M1.50155 7.22246C1.4843 7.53071 1.6568 7.81796 1.9373 7.94696L7.5653 10.5285L10.1468 16.1557C10.2698 16.4227 10.5368 16.593 10.8286 16.593L10.8713 16.5915C11.0218 16.583 11.1663 16.5294 11.2859 16.4376C11.4055 16.3459 11.4947 16.2202 11.5418 16.077L15.738 3.30296C15.8258 3.03446 15.7553 2.73821 15.5558 2.53796C15.3563 2.33771 15.0608 2.26946 14.7908 2.35571L2.01605 6.55196C1.87284 6.59906 1.74714 6.68823 1.65536 6.80784C1.56359 6.92744 1.50998 7.07193 1.50155 7.22246ZM13.8496 4.24421L10.7131 13.7917L8.81255 9.65021C8.7378 9.48693 8.60683 9.35596 8.44355 9.28121L4.30055 7.38071L13.8496 4.24421Z" fill="black"/>
</svg>
