<svg width="45" height="45" viewBox="0 0 45 45" fill="none" xmlns="http://www.w3.org/2000/svg">
<path fill-rule="evenodd" clip-rule="evenodd" d="M22.625 39.625C24.8575 39.625 27.0681 39.1853 29.1306 38.331C31.1932 37.4766 33.0672 36.2244 34.6458 34.6458C36.2244 33.0672 37.4766 31.1932 38.331 29.1306C39.1853 27.0681 39.625 24.8575 39.625 22.625C39.625 20.3925 39.1853 18.1819 38.331 16.1194C37.4766 14.0568 36.2244 12.1828 34.6458 10.6042C33.0672 9.02559 31.1932 7.77338 29.1306 6.91905C27.0681 6.06472 24.8575 5.625 22.625 5.625C18.1163 5.625 13.7923 7.41607 10.6042 10.6042C7.41607 13.7923 5.625 18.1163 5.625 22.625C5.625 27.1337 7.41607 31.4577 10.6042 34.6458C13.7923 37.8339 18.1163 39.625 22.625 39.625ZM22.1868 29.5006L31.6312 18.1672L28.7299 15.7494L20.6077 25.4942L16.4049 21.2896L13.734 23.9604L19.4007 29.6271L20.8627 31.0891L22.1868 29.5006Z" fill="#4FB800"/>
</svg>
