<svg width="46" height="45" viewBox="0 0 46 45" fill="none" xmlns="http://www.w3.org/2000/svg">
<g clip-path="url(#clip0_223_90)">
<path d="M7.0925 38.4075C4.94352 36.3319 3.22942 33.8492 2.05021 31.1041C0.871011 28.359 0.250321 25.4066 0.22436 22.419C0.198399 19.4315 0.767688 16.4687 1.89901 13.7035C3.03033 10.9384 4.70102 8.42619 6.81361 6.31361C8.92619 4.20102 11.4384 2.53033 14.2035 1.39901C16.9687 0.267688 19.9315 -0.301601 22.919 -0.27564C25.9066 -0.249679 28.859 0.371011 31.6041 1.55021C34.3492 2.72942 36.8319 4.44352 38.9075 6.5925C43.0061 10.836 45.2739 16.5196 45.2227 22.419C45.1714 28.3184 42.8051 33.9617 38.6334 38.1334C34.4617 42.3051 28.8184 44.6714 22.919 44.7227C17.0196 44.7739 11.336 42.5061 7.0925 38.4075ZM10.265 35.235C13.6425 38.6125 18.2234 40.51 23 40.51C27.7765 40.51 32.3575 38.6125 35.735 35.235C39.1125 31.8575 41.01 27.2765 41.01 22.5C41.01 17.7234 39.1125 13.1425 35.735 9.765C32.3575 6.38746 27.7765 4.48999 23 4.48999C18.2234 4.48999 13.6425 6.38746 10.265 9.765C6.88746 13.1425 4.98999 17.7234 4.98999 22.5C4.98999 27.2765 6.88746 31.8575 10.265 35.235ZM32.54 16.1325L26.1725 22.5L32.54 28.8675L29.3675 32.04L23 25.6725L16.6325 32.04L13.46 28.8675L19.8275 22.5L13.46 16.1325L16.6325 12.96L23 19.3275L29.3675 12.96L32.54 16.1325Z" fill="#FE3839"/>
</g>
<defs>
<clipPath id="clip0_223_90">
<rect width="45" height="45" fill="white" transform="translate(0.5)"/>
</clipPath>
</defs>
</svg>
