<svg width="45" height="45" viewBox="0 0 45 45" fill="none" xmlns="http://www.w3.org/2000/svg">
<g clip-path="url(#clip0_223_84)">
<path d="M22.5 3.75C32.8556 3.75 41.25 12.1444 41.25 22.5C41.25 32.8556 32.8556 41.25 22.5 41.25C12.1444 41.25 3.75 32.8556 3.75 22.5C3.75 12.1444 12.1444 3.75 22.5 3.75ZM22.5 7.5C18.5218 7.5 14.7064 9.08035 11.8934 11.8934C9.08035 14.7064 7.5 18.5218 7.5 22.5C7.5 26.4782 9.08035 30.2936 11.8934 33.1066C14.7064 35.9196 18.5218 37.5 22.5 37.5C26.4782 37.5 30.2936 35.9196 33.1066 33.1066C35.9196 30.2936 37.5 26.4782 37.5 22.5C37.5 18.5218 35.9196 14.7064 33.1066 11.8934C30.2936 9.08035 26.4782 7.5 22.5 7.5ZM22.5 11.25C22.9592 11.2501 23.4025 11.4187 23.7457 11.7238C24.0889 12.029 24.3081 12.4495 24.3619 12.9056L24.375 13.125V21.7238L29.4506 26.7994C29.7869 27.1368 29.9821 27.5896 29.9967 28.0657C30.0112 28.5419 29.844 29.0057 29.5289 29.363C29.2138 29.7203 28.7746 29.9443 28.3004 29.9895C27.8261 30.0347 27.3525 29.8976 26.9756 29.6063L26.7994 29.4506L21.1744 23.8256C20.883 23.534 20.6958 23.1544 20.6419 22.7456L20.625 22.5V13.125C20.625 12.6277 20.8225 12.1508 21.1742 11.7992C21.5258 11.4475 22.0027 11.25 22.5 11.25Z" fill="#FFB302"/>
</g>
<defs>
<clipPath id="clip0_223_84">
<rect width="45" height="45" fill="white"/>
</clipPath>
</defs>
</svg>
