<svg width="160" height="263" viewBox="0 0 160 263" fill="none" xmlns="http://www.w3.org/2000/svg">
<path d="M76.7 262.525C105.902 262.525 129.575 261.148 129.575 259.45C129.575 257.752 105.902 256.375 76.7 256.375C47.4979 256.375 23.825 257.752 23.825 259.45C23.825 261.148 47.4979 262.525 76.7 262.525Z" fill="#D1D3D4"/>
<path d="M17.75 125.8C17.45 126.175 16.475 147.25 15.425 148.375C12.5 151.3 12.875 145.225 12.875 145.225C12.875 145.225 7.25004 157.525 3.95004 156.55C-2.04996 154.825 4.17503 140.65 5.67503 137.725C7.10003 132.1 7.32504 120.85 7.32504 120.85" fill="white"/>
<path d="M4.25 157.15C4.1 157.15 3.95001 157.15 3.72501 157.075C2.60001 156.775 1.70001 155.95 1.32501 154.9C-0.624992 150.325 3.8 140.125 5.15 137.575C6.575 132.025 6.72501 121 6.72501 120.925C6.72501 120.625 6.95 120.4 7.25 120.4C7.55 120.4 7.775 120.625 7.775 120.925C7.775 121.375 7.55 132.325 6.125 137.95L6.05 138.025C4.85 140.275 0.425005 150.325 2.22501 154.525C2.52501 155.275 3.20001 155.875 3.95001 156.1C5.90001 156.7 9.95 149.95 12.275 145C12.35 144.775 12.65 144.625 12.875 144.7C13.1 144.775 13.25 145 13.25 145.225C13.175 146.65 13.4 148.375 13.85 148.6C14 148.675 14.375 148.525 14.9 148C15.5 147.1 16.175 137.125 16.55 131.8C17 125.8 17 125.725 17.15 125.5C17.3 125.275 17.675 125.2 17.9 125.425C18.05 125.575 18.125 125.8 18.05 126.025C17.975 126.475 17.75 129.1 17.6 131.875C16.85 142.825 16.325 148.075 15.65 148.825C14.825 149.65 14.075 149.95 13.4 149.65C12.725 149.35 12.35 148.375 12.275 147.4C10.625 150.925 7.1 157.15 4.25 157.15Z" fill="#231F20"/>
<path d="M94.4 78.6997L107 73.2247C107 73.2247 109.55 67.1497 112.025 66.3997C114.5 65.6497 121.025 65.1997 121.025 65.1997C122.675 66.3997 123.5 68.4997 122.975 70.5247C122.225 74.1997 117.35 80.1247 110.525 81.6247L98.15 92.5747" fill="white"/>
<path d="M98.075 93.0997C97.925 93.0997 97.775 93.0247 97.7 92.9497C97.475 92.7247 97.55 92.4247 97.775 92.1997L110.225 81.2497C110.3 81.1747 110.375 81.1747 110.45 81.0997C117.125 79.6747 121.775 73.8997 122.45 70.4497C122.9 68.7247 122.3 66.8497 120.875 65.7997C119.825 65.8747 114.35 66.3247 112.175 66.9247C110.3 67.4497 108.125 71.7997 107.525 73.4497C107.45 73.5997 107.375 73.6747 107.225 73.7497L94.625 79.2247C94.4 79.3747 94.025 79.2247 93.95 78.9997C93.8 78.7747 93.95 78.3997 94.175 78.3247H94.25L106.625 72.9247C107.15 71.7247 109.4 66.7747 111.875 66.0247C114.35 65.2747 120.725 64.8247 121.025 64.8247C121.1 64.8247 121.25 64.8247 121.325 64.8997C123.2 66.1747 124.1 68.5747 123.5 70.7497C122.75 74.5747 117.95 80.5747 110.825 82.2247L98.525 93.0997C98.3 93.0247 98.225 93.0997 98.075 93.0997Z" fill="#231F20"/>
<path d="M119.975 57.6997L104.375 77.6497L113.45 78.6997L127.925 59.3497L119.975 57.6997Z" fill="#231F20"/>
<path d="M113.45 79.2248L104.3 78.1748C104.075 78.1748 103.925 78.0248 103.85 77.8748C103.775 77.7248 103.775 77.4998 103.925 77.3498L119.525 57.4748C119.675 57.3248 119.825 57.2498 120.05 57.3248L128 58.9748C128.3 59.0498 128.45 59.3498 128.375 59.5748C128.375 59.6498 128.3 59.7248 128.3 59.7998L113.9 78.9998C113.75 79.1498 113.6 79.2248 113.45 79.2248ZM105.35 77.1998L113.225 78.0998L127.025 59.6498L120.2 58.2248L105.35 77.1998Z" fill="#231F20"/>
<path d="M120.425 58.0747L106.7 75.6247L112.775 76.4497L126.35 59.3497L120.425 58.0747Z" fill="white"/>
<path d="M104.375 89.7996L98.225 75.4746L67.175 89.7996L70.2501 114.55C70.2501 114.55 98.1501 97.8996 104.375 89.7996Z" fill="#FF2D2D"/>
<path d="M102.125 226.75C102.125 226.75 108.725 243.025 108.125 243.025C107.525 243.025 93.2751 245.275 93.2751 245.275C93.2751 245.275 86.8251 231.925 86.9001 231.625C86.9751 231.325 102.125 226.75 102.125 226.75Z" fill="white"/>
<path d="M93.2751 245.8C93.0501 245.8 92.9001 245.65 92.8251 245.5C86.2251 231.925 86.3751 231.625 86.5251 231.325C86.6751 231.025 86.7501 230.875 101.975 226.15C102.2 226.075 102.5 226.225 102.65 226.45C109.175 242.5 108.8 242.95 108.65 243.25C108.575 243.4 108.35 243.475 108.2 243.475C107.6 243.475 99.0501 244.825 93.4251 245.725L93.2751 245.8ZM87.5751 231.925C88.2501 233.575 91.4001 240.25 93.5751 244.75C96.2751 244.3 105.2 242.875 107.525 242.575C107 240.625 103.925 232.675 101.75 227.425C96.8001 228.925 89.3001 231.25 87.5751 231.925Z" fill="#231F20"/>
<path d="M108.125 243.025C108.125 243.025 131.525 244.75 132.2 249.025C132.875 253.3 97.1 259.45 97.1 259.45L93.275 245.275L108.125 243.025Z" fill="#231F20"/>
<path d="M97.1 259.975C96.8751 259.975 96.6501 259.825 96.5751 259.6L92.7501 245.425C92.6751 245.275 92.7501 245.125 92.8251 244.975C92.9001 244.825 93.0501 244.75 93.2001 244.75L108.05 242.5H108.125C112.1 242.8 132.05 244.525 132.65 248.95C133.25 253.375 105.65 258.475 97.1 259.975ZM93.9501 245.725L97.5501 258.85C114.35 255.925 132.05 251.425 131.675 249.1C131.45 247.6 124.85 244.75 108.125 243.55L93.9501 245.725Z" fill="#231F20"/>
<path d="M52.9999 223.225L46.2499 229L36.95 216.325L46.7749 208.375L52.9999 223.225Z" fill="white"/>
<path d="M46.25 229.525C46.025 229.525 45.875 229.45 45.8 229.3L36.5 216.625C36.35 216.4 36.3501 216.1 36.5751 215.875L46.4 208C46.55 207.925 46.7 207.85 46.85 207.925C47 208 47.15 208.075 47.225 208.225L53.4501 223C53.5251 223.225 53.45 223.45 53.3 223.6L46.55 229.375C46.55 229.45 46.4 229.525 46.25 229.525ZM37.7001 216.4L46.3251 228.25L52.4 223.075L46.55 209.275L37.7001 216.4Z" fill="#231F20"/>
<path d="M46.25 229C46.25 229 50.975 253.375 46.925 252.55C42.875 251.725 26.75 224.8 26.75 224.8L36.95 216.25L46.25 229Z" fill="#231F20"/>
<path d="M47.15 253.075C47.075 253.075 46.925 253.075 46.85 253.075C42.725 252.25 28.025 227.875 26.3 225.1C26.15 224.875 26.225 224.575 26.375 224.425L36.575 215.875C36.65 215.8 36.8 215.725 36.95 215.725C37.1 215.725 37.25 215.8 37.325 215.95L46.625 228.625C46.7 228.7 46.7 228.775 46.7 228.85C46.7 228.925 47.75 234.1 48.425 239.65C49.85 250.975 48.5 252.25 48.05 252.7C47.825 253 47.525 253.075 47.15 253.075ZM27.5 224.95C33.95 235.675 44.375 251.5 47.075 252.025C47.15 252.025 47.3 252.025 47.375 251.95C49.1 250.3 47.3 237.175 45.8 229.225L36.95 217.075L27.5 224.95Z" fill="#231F20"/>
<path d="M74.15 112.75C74.15 112.75 114.5 169.6 114.575 174.7C114.725 184.6 53.375 227.275 53.375 227.275L43.025 208.45L80.675 174.55L45.35 110.275L74.15 112.75Z" fill="#231F20"/>
<path d="M53.375 227.8H53.225C53.075 227.8 52.925 227.65 52.925 227.575L42.5751 208.75C42.4251 208.525 42.5 208.3 42.65 208.075L80 174.475L44.8251 110.5C44.7501 110.35 44.7501 110.125 44.8251 109.975C44.9001 109.825 45.125 109.75 45.275 109.75L74.15 112.225C74.3 112.225 74.45 112.3 74.525 112.45C78.65 118.3 114.95 169.6 115.1 174.7C115.25 184.75 56.15 225.925 53.675 227.725C53.6 227.725 53.45 227.8 53.375 227.8ZM43.7001 208.525L53.6 226.45C56.3 224.575 70.1 214.825 83.75 204.25C110.225 183.7 114.125 176.875 114.05 174.7C113.975 170.65 85.175 129.175 73.85 113.2L46.25 110.875L81.125 174.325C81.275 174.55 81.2 174.775 81.05 175L43.7001 208.525Z" fill="#231F20"/>
<path d="M34.025 118.975L88.175 240.025L108.875 231.4L66.5 112.525L34.025 118.975Z" fill="#231F20"/>
<path d="M88.175 240.55C87.95 240.55 87.8 240.4 87.725 240.25L33.575 119.2C33.425 118.975 33.5 118.675 33.8 118.525C33.875 118.525 33.875 118.45 33.95 118.45L66.425 112C66.65 111.925 66.95 112.075 67.025 112.3L109.4 231.25C109.475 231.55 109.325 231.775 109.1 231.925L88.4 240.55C88.325 240.55 88.25 240.55 88.175 240.55ZM34.775 119.35L88.475 239.35L108.275 231.1L66.2 113.125L34.775 119.35Z" fill="#231F20"/>
<path d="M95.675 192.85C95.45 192.85 95.225 192.7 95.15 192.475L70.85 126.7C70.775 126.55 70.85 126.325 70.925 126.175L75.125 120.475C75.275 120.25 75.575 120.175 75.875 120.325C76.1 120.475 76.175 120.775 76.025 121.075C76.025 121.075 76.025 121.15 75.95 121.15L71.9 126.625L96.125 192.175C96.2 192.475 96.125 192.775 95.825 192.85C95.825 192.85 95.75 192.85 95.675 192.85Z" fill="white"/>
<path d="M50.4501 35.1245C49.2501 35.1995 48.2001 34.7495 48.0501 33.0995L47.4501 22.5245C47.3001 19.3745 47.0751 16.0745 47.7501 12.9995C48.4251 9.99953 50.3001 6.92452 53.3751 6.32452C54.4251 6.09952 55.4751 6.24952 56.4501 6.02452C58.4001 5.49952 59.6751 3.77452 61.3251 2.64952C63.9501 0.849523 67.3251 0.549523 70.2501 1.89952C71.0001 2.34952 71.7501 2.64952 72.5751 2.94952C75.1251 3.69952 77.6751 1.89953 80.3001 1.67453C84.2751 1.29953 87.8001 4.52452 89.3751 8.19952C91.5501 13.1495 90.5751 19.9745 85.7751 22.3745C81.9501 24.2495 77.9751 23.1245 74.0751 23.2745C69.9501 23.4245 68.0751 26.5745 65.0751 28.9745C62.2251 31.2995 58.8501 32.8745 55.1751 33.5495C53.8251 33.7745 53.3751 34.3745 52.1751 34.7495C51.5751 34.9745 50.9751 35.0495 50.4501 35.1245Z" fill="white"/>
<path d="M50.225 35.6498C48.875 35.7998 47.675 34.8248 47.525 33.4748C47.525 33.3998 47.525 33.2498 47.525 33.1748L46.925 22.5998C46.775 19.4498 46.55 16.1498 47.3 12.9248C47.975 9.92476 49.925 6.47476 53.3 5.87476C53.825 5.79976 54.275 5.72476 54.8 5.72476C55.325 5.72476 55.85 5.64976 56.375 5.57476C57.575 5.12476 58.625 4.44976 59.525 3.54976C60.05 3.09976 60.575 2.64976 61.1 2.27476C63.875 0.324761 67.475 0.0247618 70.55 1.44976C70.775 1.59976 71.075 1.67476 71.3 1.82476C71.75 2.12476 72.275 2.34976 72.8 2.49976C74.225 2.87476 75.65 2.42477 77.225 1.97477C78.2 1.59977 79.25 1.37477 80.3 1.22477C84.65 0.849765 88.325 4.37476 89.9 8.04976C92.15 13.1498 91.175 20.3498 86.075 22.8998C83.3 24.2498 80.45 24.0998 77.675 23.9498C76.475 23.8748 75.35 23.7998 74.15 23.8748C71.3 24.0248 69.65 25.5998 67.7 27.3998C67.025 28.0748 66.275 28.7498 65.45 29.4248C62.525 31.8248 59.075 33.3998 55.325 34.0748C54.8 34.1498 54.2 34.3748 53.75 34.6748C53.3 34.8998 52.925 35.1248 52.4 35.2748C51.8 35.4998 51.2 35.5748 50.525 35.6498H50.225ZM66.425 1.59977C64.7 1.59977 63.05 2.12477 61.625 3.09977C61.1 3.47477 60.575 3.84976 60.125 4.29976C59.15 5.34976 57.95 6.09976 56.6 6.54976C56 6.69976 55.4 6.77476 54.8 6.77476C54.35 6.77476 53.9 6.84976 53.45 6.92476C50.525 7.44976 48.875 10.5248 48.275 13.2248C47.6 16.2998 47.75 19.5248 47.975 22.5998L48.575 33.1748C48.65 34.2998 49.175 34.7498 50.375 34.6748C51.35 34.5998 52.25 34.2998 53.15 33.8498C53.75 33.4748 54.35 33.2498 55.025 33.0998C58.55 32.4248 61.85 30.8498 64.625 28.5998C65.375 27.9998 66.125 27.3248 66.8 26.6498C68.825 24.7748 70.7 22.9748 73.925 22.8248C75.125 22.7498 76.4 22.8248 77.6 22.8998C80.375 23.0498 82.925 23.1998 85.475 21.9998C90.05 19.7498 90.95 13.1498 88.85 8.49976C87.425 5.27476 84.125 1.97476 80.3 2.27476C79.325 2.42476 78.35 2.64976 77.375 2.94976C75.725 3.47476 74.075 3.99977 72.35 3.47477C71.75 3.24977 71.225 3.02477 70.7 2.72477C70.475 2.57477 70.25 2.49977 69.95 2.34977C68.825 1.82477 67.625 1.59977 66.425 1.59977Z" fill="#231F20"/>
<path d="M74.75 25.2246C74.75 25.2246 77.6 32.2746 76.475 33.3996C75.35 34.5246 72.725 33.0996 72.725 33.0996" fill="white"/>
<path d="M75.2 34.3746C74.225 34.2996 73.25 33.9996 72.425 33.5496C72.2 33.3996 72.05 33.0996 72.2 32.8746C72.35 32.6496 72.65 32.4996 72.875 32.6496C73.475 32.9496 75.35 33.7746 76.025 33.0996C76.475 32.6496 75.65 29.0496 74.225 25.4496C74.15 25.1496 74.225 24.8496 74.525 24.7746C74.825 24.6996 75.125 24.7746 75.2 25.0746C76.1 27.3246 78.05 32.5746 76.775 33.8496C76.4 34.2246 75.8 34.3746 75.2 34.3746Z" fill="#231F20"/>
<path d="M75.5 16.8246C77.675 19.5246 76.025 23.8746 75.35 26.7996C74.45 30.9246 73.475 35.0496 72.425 39.0996C71.75 41.6496 64.925 40.3746 63.95 39.3246L62.825 48.0996C62.825 48.0996 60.275 52.5246 55.325 48.9246C50.375 45.3246 49.775 41.4996 49.775 41.4996L52.7 29.6496C52.7 29.6496 57.2 30.6246 60.95 25.8246C64.7 21.0246 66.275 12.8496 66.275 12.8496C66.275 12.8496 73.4 14.2746 75.5 16.8246Z" fill="white"/>
<path d="M59 50.875C57.5 50.8 56.15 50.275 54.95 49.3C49.85 45.55 49.25 41.725 49.25 41.575C49.25 41.5 49.25 41.425 49.25 41.35L52.175 29.5C52.25 29.2 52.55 29.05 52.775 29.125C52.925 29.125 56.975 29.95 60.5 25.45C64.1 20.8 65.675 12.7 65.675 12.625C65.675 12.475 65.75 12.4 65.9 12.325C66.05 12.25 66.125 12.25 66.275 12.25C66.575 12.325 73.7 13.75 75.875 16.45C77.825 18.85 76.925 22.45 76.25 25.3C76.1 25.825 75.95 26.35 75.875 26.875C74.975 31 74 35.125 72.95 39.25C72.65 40.15 71.9 40.75 71 40.9C68.75 41.275 66.425 41.05 64.325 40.15L63.275 48.175C63.275 48.25 63.275 48.325 63.2 48.4C62.45 49.6 61.25 50.5 59.9 50.8C59.6 50.875 59.3 50.875 59 50.875ZM50.3 41.5C50.45 42.1 51.35 45.325 55.625 48.475C57.125 49.6 58.475 49.975 59.75 49.75C60.8 49.45 61.7 48.85 62.3 47.95L63.425 39.25C63.425 38.95 63.725 38.8 64.025 38.8C64.175 38.8 64.25 38.875 64.325 38.95C64.925 39.475 68.6 40.45 70.775 39.85C71.45 39.7 71.825 39.325 71.975 38.95C73.025 34.9 74 30.775 74.9 26.65C74.975 26.125 75.125 25.6 75.275 25C75.95 22.375 76.775 19.075 75.125 17.05C73.475 15.025 68.3 13.675 66.65 13.3C66.2 15.25 64.625 21.85 61.325 26.05C58.025 30.25 54.425 30.25 53.075 30.175L50.3 41.5Z" fill="#231F20"/>
<path d="M73.025 36.0247C73.025 36.0247 69.425 37.3747 68.375 33.6997L73.025 36.0247Z" fill="white"/>
<path d="M71.6 36.7749C69.8 36.8499 68.225 35.5749 67.925 33.8499C67.85 33.5499 68 33.2499 68.3 33.1749C68.6 33.0999 68.9 33.2499 68.975 33.5499C69.125 34.3749 69.65 35.0499 70.325 35.4249C71.15 35.7999 72.05 35.7999 72.875 35.4999C73.175 35.3499 73.475 35.4999 73.55 35.7249C73.7 36.0249 73.55 36.3249 73.325 36.3999H73.25C72.65 36.6999 72.125 36.7749 71.6 36.7749Z" fill="#231F20"/>
<path d="M66.275 26.2749C66.35 25.2249 66.2 24.1749 65.675 23.1999C65.375 22.4499 65 21.6999 64.55 21.0249C64.025 20.3499 63.275 19.8999 62.45 19.8999C61.7 19.8999 61.025 20.2749 60.575 20.8749C60.125 21.4749 59.825 22.0749 59.675 22.8249C58.85 25.9749 59.825 29.2749 62.15 31.5249L62 31.2249" fill="white"/>
<path d="M62.15 31.9748C62 31.9748 61.85 31.8998 61.775 31.8248C59.3 29.4248 58.325 25.8998 59.15 22.5998C59.3 21.8498 59.675 21.0998 60.2 20.4248C60.725 19.7498 61.55 19.2998 62.45 19.2998C63.425 19.3748 64.325 19.8248 64.925 20.6498C65.45 21.3248 65.825 22.1498 66.125 22.9748C66.65 24.0248 66.875 25.1498 66.725 26.3498C66.65 26.6498 66.425 26.7998 66.125 26.7998C65.825 26.7248 65.675 26.4998 65.675 26.1998C65.75 25.2248 65.525 24.2498 65.15 23.4248C64.925 22.6748 64.55 21.9998 64.1 21.3998C63.725 20.8748 63.05 20.4998 62.45 20.4998C61.85 20.4998 61.325 20.7998 60.95 21.2498C60.575 21.7748 60.275 22.3748 60.125 22.9748C59.45 25.7498 60.125 28.5998 62.075 30.7748C62.225 30.7748 62.3 30.9248 62.375 30.9998L62.525 31.2998C62.675 31.5248 62.6 31.8248 62.45 31.9748C62.375 31.9748 62.225 31.9748 62.15 31.9748Z" fill="#231F20"/>
<path d="M63.9501 39.325C63.9501 39.325 60.6501 37.525 59.5251 34.75C59.5251 34.75 58.4751 41.05 63.5001 44.05L63.9501 39.325Z" fill="#231F20"/>
<path d="M63.5 44.5746C63.425 44.5746 63.35 44.5746 63.2 44.4996C57.95 41.4246 59 34.7496 59 34.6746C59.075 34.4496 59.225 34.2996 59.45 34.2246C59.675 34.2246 59.9 34.2996 59.975 34.5246C61.025 37.0746 64.175 38.7996 64.175 38.7996C64.325 38.8746 64.475 39.0996 64.475 39.3246L64.025 44.0496C64.025 44.1996 63.875 44.3496 63.725 44.4996C63.65 44.5746 63.575 44.5746 63.5 44.5746ZM59.975 36.5496C60.05 38.3496 60.575 41.2746 63.05 43.1496L63.425 39.6246C62.075 38.7996 60.95 37.7496 59.975 36.5496Z" fill="#231F20"/>
<path d="M73.5399 22.1426C73.8394 21.3702 73.8317 20.6469 73.5227 20.5271C73.2138 20.4073 72.7205 20.9364 72.421 21.7088C72.1216 22.4812 72.1293 23.2045 72.4382 23.3243C72.7472 23.4441 73.2404 22.915 73.5399 22.1426Z" fill="#231F20"/>
<path d="M42.725 42.3249C42.725 42.3249 61.025 43.0749 65.675 52.9749C70.325 62.8749 68.825 96.7749 71.525 99.6249C74.225 102.475 80.675 116.425 80.45 117.025C80.225 117.625 31.625 122.875 31.625 122.875C31.625 122.875 31.1 111.775 28.85 97.0749C26.6 82.3749 29.225 40.5249 42.725 42.3249Z" fill="#FF2D2D"/>
<path d="M50.8251 139.975C50.6751 139.975 50.6001 139.9 50.5251 139.9C50.3001 139.75 50.2251 139.375 50.4501 139.15C57.0501 130.825 53.6751 126.4 53.5251 126.175C53.3751 125.95 53.3751 125.65 53.6001 125.425C53.8251 125.2 54.1251 125.275 54.3501 125.5C54.5001 125.725 58.4751 130.75 51.2751 139.75C51.1251 139.9 50.9751 139.975 50.8251 139.975Z" fill="white"/>
<path d="M36.65 42.25C36.65 42.25 8.675 72.625 3.875 129.55L19.625 129.25C19.625 129.25 26.6 100 46.175 67.9L36.65 42.25Z" fill="#FF2D2D"/>
<path d="M78.8 112.6H78.725C78.5 112.525 78.35 112.375 78.275 112.15C78.125 111.625 76.4 108.775 74.975 106.225C72.875 102.625 70.7 98.8749 70.325 97.7499C69.875 96.4749 69.2 87.2499 68.45 75.2499C68.15 69.9999 67.85 65.4999 67.625 63.7749C67.1 60.1749 66.275 56.5749 65.15 53.1249C65.075 52.8249 65.15 52.5249 65.45 52.4499C65.75 52.3749 66.05 52.4499 66.125 52.7499C66.125 52.7499 66.125 52.7499 66.125 52.8249C67.25 56.3499 68.15 60.0249 68.6 63.6999C68.75 65.4249 69.05 69.9249 69.425 75.1749C70.025 84.0249 70.775 96.0999 71.225 97.3749C71.6 98.4249 73.85 102.325 75.8 105.7C79.325 111.775 79.325 111.85 79.25 112.225C79.25 112.45 79.1 112.6 78.8 112.6Z" fill="#231F20"/>
<path d="M21.95 119.875C21.875 119.875 21.8 119.875 21.8 119.875C21.5 119.8 21.35 119.5 21.5 119.2C21.65 118.825 35.075 80.7995 49.25 62.7245C49.4 62.4995 49.775 62.4245 50 62.6495C50.225 62.7995 50.3 63.1745 50.075 63.3995C36.05 81.3245 22.625 119.2 22.475 119.575C22.4 119.8 22.175 119.875 21.95 119.875Z" fill="#231F20"/>
<path d="M115.7 76.4499C115.775 72.6999 116.45 68.7249 118.85 65.7999C119.45 65.0499 120.425 64.3749 121.25 64.7499C121.85 65.1249 122.225 65.7249 122.225 66.3999C122.225 67.0749 122.375 67.7499 122.6 68.3499" fill="white"/>
<path d="M115.7 76.9746C115.4 76.9746 115.175 76.7496 115.175 76.4496C115.25 71.6496 116.375 68.0496 118.475 65.4996C119.45 64.2996 120.575 63.8496 121.55 64.2996C122.3 64.7496 122.825 65.4996 122.825 66.3996C122.825 66.5496 122.9 66.7746 122.9 66.9246C122.9 67.3746 123.05 67.8246 123.2 68.1996C123.35 68.4246 123.2 68.7996 122.975 68.8746C122.75 69.0246 122.375 68.8746 122.225 68.6496C122 68.1246 121.85 67.5996 121.85 66.9996C121.85 66.8496 121.85 66.6996 121.775 66.5496C121.7 66.1746 121.55 65.4996 121.1 65.2746C120.65 65.0496 119.75 65.5746 119.3 66.1746C117.35 68.5746 116.375 71.9496 116.225 76.5246C116.225 76.7496 116 77.0496 115.7 76.9746Z" fill="#231F20"/>
<path d="M39.875 31.2995C38.45 30.3245 36.875 29.5745 35.225 29.1995C32.975 28.8995 30.725 29.7245 28.7 30.7745C26 32.1245 23.6749 34.1495 22.0249 36.6995C20.4499 39.2495 20.0749 42.6245 21.4249 45.3245C22.7749 47.8745 25.475 49.3745 28.25 49.9745C31.025 50.5745 33.9499 50.3495 36.7999 50.1245C39.4999 49.8995 42.275 49.8995 44.975 50.0495C50.6 50.4995 55.925 52.2995 61.475 53.3495C64.925 54.0245 63.575 50.3495 62.225 48.9995C59.975 46.7495 57.6499 44.5745 55.25 42.5495C50.4499 38.4245 45.275 34.6745 39.875 31.2995Z" fill="#FF2D2D"/>
<path d="M52.85 50.8745C52.775 50.8745 52.625 50.8745 52.55 50.7995C42.125 44.0495 32.225 49.8995 32.075 49.8995C31.85 50.0495 31.475 49.9745 31.325 49.7495C31.175 49.5245 31.25 49.2245 31.475 48.9995C31.475 48.9995 31.475 48.9995 31.55 48.9995C31.625 48.9245 42.125 42.7745 53.15 49.8995C53.375 50.0495 53.45 50.3495 53.3 50.6495C53.225 50.7995 53.075 50.8745 52.85 50.8745Z" fill="#231F20"/>
<path d="M154.1 12.25H109.1C106.475 12.25 104.375 14.35 104.375 16.975V40.975C104.375 43.6 106.475 45.7 109.1 45.7H114.5V55.15L119.975 45.7H154.025C156.65 45.7 158.75 43.6 158.75 40.975V16.975C158.75 14.35 156.65 12.25 154.1 12.25Z" fill="white"/>
<path d="M114.5 55.5999H114.35C114.125 55.5249 113.975 55.2999 113.975 55.0749V46.1499H109.1C106.175 46.1499 103.85 43.8249 103.85 40.8999V16.8999C103.85 13.9749 106.175 11.6499 109.1 11.6499H154.1C157.025 11.6499 159.35 13.9749 159.35 16.8999V40.8999C159.35 43.8249 157.025 46.1499 154.1 46.1499H120.35L115.025 55.2999C114.875 55.5249 114.725 55.5999 114.5 55.5999ZM109.1 12.7749C106.775 12.7749 104.9 14.6499 104.9 16.9749V40.9749C104.9 43.2999 106.775 45.1749 109.1 45.1749H114.5C114.8 45.1749 115.025 45.3999 115.025 45.6999V53.1249L119.525 45.3999C119.6 45.2499 119.825 45.1749 119.975 45.0999H154.025C156.35 45.0999 158.225 43.2249 158.225 40.8999V16.8999C158.225 14.5749 156.35 12.6999 154.025 12.6999L109.1 12.7749Z" fill="#D1D3D4"/>
<path d="M132 38C131.3 38 130.708 37.7583 130.225 37.275C129.742 36.7917 129.5 36.2 129.5 35.5C129.5 34.8 129.742 34.2083 130.225 33.725C130.708 33.2417 131.3 33 132 33C132.7 33 133.292 33.2417 133.775 33.725C134.258 34.2083 134.5 34.8 134.5 35.5C134.5 36.2 134.258 36.7917 133.775 37.275C133.292 37.7583 132.7 38 132 38ZM126.35 32.35L124.25 30.2C125.233 29.2167 126.388 28.4377 127.713 27.863C129.038 27.2883 130.467 27.0007 132 27C133.533 26.9993 134.962 27.291 136.288 27.875C137.614 28.459 138.768 29.2507 139.75 30.25L137.65 32.35C136.917 31.6167 136.067 31.0417 135.1 30.625C134.133 30.2083 133.1 30 132 30C130.9 30 129.867 30.2083 128.9 30.625C127.933 31.0417 127.083 31.6167 126.35 32.35ZM122.1 28.1L120 26C121.533 24.4333 123.325 23.2083 125.375 22.325C127.425 21.4417 129.633 21 132 21C134.367 21 136.575 21.4417 138.625 22.325C140.675 23.2083 142.467 24.4333 144 26L141.9 28.1C140.617 26.8167 139.129 25.8127 137.438 25.088C135.747 24.3633 133.934 24.0007 132 24C130.066 23.9993 128.254 24.362 126.563 25.088C124.872 25.814 123.385 26.818 122.1 28.1Z" fill="black"/>
</svg>
