<svg width="18" height="19" viewBox="0 0 18 19" fill="none" xmlns="http://www.w3.org/2000/svg">
<path d="M9 11.3696C10.6545 11.3696 12 10.0241 12 8.36963C12 6.71513 10.6545 5.36963 9 5.36963C7.3455 5.36963 6 6.71513 6 8.36963C6 10.0241 7.3455 11.3696 9 11.3696ZM9 6.86963C9.82725 6.86963 10.5 7.54238 10.5 8.36963C10.5 9.19688 9.82725 9.86963 9 9.86963C8.17275 9.86963 7.5 9.19688 7.5 8.36963C7.5 7.54238 8.17275 6.86963 9 6.86963Z" fill="black"/>
<path d="M8.56494 17.2301C8.69188 17.3208 8.84396 17.3695 8.99994 17.3695C9.15592 17.3695 9.30801 17.3208 9.43494 17.2301C9.66294 17.0689 15.0217 13.1996 14.9999 8.36963C14.9999 5.06138 12.3082 2.36963 8.99994 2.36963C5.69169 2.36963 2.99994 5.06138 2.99994 8.36588C2.97819 13.1996 8.33694 17.0689 8.56494 17.2301ZM8.99994 3.86963C11.4817 3.86963 13.4999 5.88788 13.4999 8.37338C13.5157 11.7019 10.2089 14.6906 8.99994 15.6709C7.79169 14.6899 4.48419 11.7004 4.49994 8.36963C4.49994 5.88788 6.51819 3.86963 8.99994 3.86963Z" fill="black"/>
</svg>
