<svg width="80" height="80" viewBox="0 0 80 80" fill="none" xmlns="http://www.w3.org/2000/svg">
<path d="M39.8248 18.8735C33.5576 18.8743 27.3472 21.5679 28 26.9503L29.6 38.6495C29.8816 40.7087 31.272 43.9999 33.3504 43.9999H33.4984L35.2 64.4239C35.2736 65.3063 35.9136 66.0239 36.8 66.0239H43.2C44.0864 66.0239 44.7264 65.3063 44.8 64.4239L46.5016 43.9999H46.6496C48.7272 43.9999 50.1184 40.7079 50.4 38.6503L52 26.9495C52.4184 21.5631 46.0928 18.8719 39.8248 18.8735Z" fill="black"/>
<path d="M40.0192 40.7266L39.9808 40.8274C39.9936 40.797 40.0024 40.7658 40.0152 40.7354L40.0192 40.7266ZM27.2048 55.2458C15.904 56.8426 8 60.6626 8 66.2858C8 73.8602 21.2064 80.0002 40 80.0002C58.7936 80.0002 72 73.8602 72 66.2858C72 60.6626 64.0968 56.8426 52.7968 55.2458L51.2312 57.9114C59.748 59.093 65.6 61.5762 65.6 64.4578C65.6 68.4978 54.1384 71.7722 40 71.7722C25.8616 71.7722 14.4 68.4978 14.4 64.4578C14.3992 61.5858 20.2128 59.105 28.756 57.9186C28.24 57.0274 27.7216 56.1378 27.2048 55.2458Z" fill="black"/>
<path d="M40 16.8C44.6392 16.8 48.4 13.0392 48.4 8.4C48.4 3.76081 44.6392 0 40 0C35.3608 0 31.6 3.76081 31.6 8.4C31.6 13.0392 35.3608 16.8 40 16.8Z" fill="black"/>
</svg>
