<svg width="375" height="375" viewBox="0 0 375 375" fill="none" xmlns="http://www.w3.org/2000/svg">
<path opacity="0.4" d="M297.537 248.471L245.903 281.033C243.262 282.698 240.288 283.765 237.19 284.156C234.092 284.548 230.947 284.256 227.974 283.301L171.375 265.107C168.384 264.146 165.217 263.856 162.101 264.259C158.985 264.662 155.996 265.747 153.348 267.438L111.911 293.889C110.639 294.693 109.198 295.189 107.702 295.338C106.205 295.487 104.695 295.285 103.29 294.749C101.885 294.213 100.624 293.356 99.6083 292.248C98.592 291.139 97.8481 289.809 97.4355 288.363L61.6718 162.986C61.0984 160.975 61.1915 158.833 61.9371 156.88C62.6827 154.927 64.0408 153.268 65.808 152.151L117.993 119.17C120.886 117.342 124.145 116.17 127.541 115.739C130.936 115.308 134.385 115.627 137.643 116.674L192.436 134.288C195.706 135.339 199.168 135.656 202.575 135.218C205.982 134.78 209.25 133.597 212.148 131.753L251.388 106.782C252.659 105.974 254.101 105.473 255.6 105.32C257.098 105.167 258.612 105.366 260.02 105.901C261.428 106.436 262.692 107.292 263.711 108.402C264.73 109.511 265.476 110.844 265.889 112.292L301.647 237.652C302.219 239.658 302.128 241.795 301.388 243.744C300.647 245.693 299.296 247.352 297.537 248.471Z" fill="#CCCDCF"/>
<path d="M299.553 235.165L255.461 263.223C252.563 265.068 249.295 266.251 245.888 266.689C242.481 267.127 239.019 266.809 235.749 265.758L180.952 248.145C177.694 247.097 174.245 246.778 170.85 247.209C167.455 247.64 164.195 248.811 161.302 250.64L113.925 280.583C112.654 281.386 111.213 281.882 109.716 282.032C108.22 282.181 106.709 281.979 105.304 281.443C103.9 280.907 102.639 280.05 101.623 278.942C100.606 277.833 99.8626 276.503 99.45 275.057L63.6866 149.68C63.1132 147.669 63.2062 145.527 63.9517 143.574C64.6973 141.621 66.0553 139.962 67.8225 138.845L120.005 105.862C122.898 104.034 126.157 102.863 129.553 102.432C132.948 102.001 136.396 102.32 139.655 103.367L194.451 120.981C197.722 122.032 201.183 122.35 204.59 121.912C207.997 121.473 211.266 120.29 214.164 118.446L253.403 93.4755C254.674 92.6668 256.116 92.1659 257.615 92.0128C259.113 91.8598 260.627 92.0587 262.035 92.5937C263.444 93.1288 264.708 93.9852 265.727 95.0949C266.745 96.2045 267.491 97.5367 267.905 98.9854L303.663 224.345C304.235 226.35 304.144 228.487 303.404 230.437C302.663 232.387 301.312 234.045 299.553 235.165Z" fill="white"/>
<path d="M175.692 233.972L167.494 210.84L128.749 224.104L116.634 189.002L85.0774 195.282L107.202 272.845C107.3 273.185 107.506 273.484 107.79 273.697C108.073 273.909 108.417 274.023 108.771 274.021C109.072 274.02 109.365 273.932 109.616 273.766L154.658 245.299C154.463 245.07 175.692 233.972 175.692 233.972Z" fill="#EAF4F7"/>
<path d="M299.553 235.165L255.461 263.223C252.563 265.068 249.295 266.251 245.888 266.689C242.481 267.127 239.019 266.809 235.749 265.758L180.952 248.145C177.694 247.097 174.245 246.778 170.85 247.209C167.455 247.64 164.195 248.811 161.302 250.64L113.925 280.583C112.654 281.386 111.213 281.882 109.716 282.032C108.22 282.181 106.709 281.979 105.304 281.443C103.9 280.907 102.639 280.05 101.623 278.942C100.606 277.833 99.8626 276.503 99.45 275.057L63.6866 149.68C63.1132 147.669 63.2062 145.527 63.9517 143.574C64.6973 141.621 66.0553 139.962 67.8225 138.845L120.005 105.862C122.898 104.034 126.157 102.863 129.553 102.432C132.948 102.001 136.396 102.32 139.655 103.367L194.451 120.981C197.722 122.032 201.183 122.35 204.59 121.912C207.997 121.473 211.266 120.29 214.164 118.446L253.403 93.4755C254.674 92.6668 256.116 92.1659 257.615 92.0128C259.113 91.8598 260.627 92.0587 262.035 92.5937C263.444 93.1288 264.708 93.9852 265.727 95.0949C266.745 96.2045 267.491 97.5367 267.905 98.9854L303.663 224.345C304.235 226.35 304.144 228.487 303.404 230.437C302.663 232.387 301.313 234.045 299.553 235.165Z" stroke="#363A5A" stroke-width="6" stroke-miterlimit="10"/>
<path d="M135.025 219.591C135.025 219.591 135.697 219.415 136.829 219.085" stroke="#363A5A" stroke-width="4" stroke-linecap="round" stroke-linejoin="round"/>
<path d="M142.281 217.34C150.244 214.569 161.929 209.486 162.069 203.474C162.256 195.486 123.544 155.524 144.357 153.108C213.84 145.044 182.707 202.833 214.396 201.542C227.784 200.996 203.026 182.59 241.277 169.285C246.947 167.313 244.13 152.892 242.228 145.352" stroke="#363A5A" stroke-width="4" stroke-linecap="round" stroke-linejoin="round" stroke-dasharray="10.18 15.26"/>
<path d="M241.492 142.585C241.176 141.453 240.967 140.785 240.967 140.785" stroke="#363A5A" stroke-width="4" stroke-linecap="round" stroke-linejoin="round"/>
<path opacity="0.22" d="M132.604 238.639C142.585 238.639 150.676 230.548 150.676 220.567C150.676 210.586 142.585 202.495 132.604 202.495C122.624 202.495 114.533 210.586 114.533 220.567C114.533 230.548 122.624 238.639 132.604 238.639Z" fill="#3DC0CB"/>
<path d="M132.605 231.047C138.392 231.047 143.084 226.355 143.084 220.567C143.084 214.779 138.392 210.087 132.605 210.087C126.817 210.087 122.125 214.779 122.125 220.567C122.125 226.355 126.817 231.047 132.605 231.047Z" fill="#3DC0CB"/>
<path d="M132.605 210.087C130.998 210.086 129.413 210.455 127.972 211.165C126.531 211.876 125.273 212.909 124.295 214.183C126.355 212.783 128.847 212.163 131.323 212.433C133.8 212.704 136.099 213.848 137.808 215.66C139.517 217.472 140.525 219.834 140.65 222.322C140.776 224.809 140.011 227.261 138.493 229.236C140.347 227.976 141.748 226.156 142.491 224.041C143.234 221.926 143.28 219.629 142.621 217.487C141.962 215.345 140.634 213.47 138.832 212.138C137.029 210.806 134.847 210.087 132.605 210.087H132.605Z" fill="#64C7CF"/>
<path d="M132.605 231.047C138.392 231.047 143.084 226.355 143.084 220.567C143.084 214.779 138.392 210.087 132.605 210.087C126.817 210.087 122.125 214.779 122.125 220.567C122.125 226.355 126.817 231.047 132.605 231.047Z" stroke="#363A5A" stroke-width="6" stroke-miterlimit="10"/>
<path d="M137.38 127.065L167.437 132.762L160.535 120.63L135.658 111.951C134.219 111.449 132.695 111.236 131.174 111.323C129.652 111.41 128.163 111.795 126.791 112.458L72.1282 145.662C71.8347 145.849 71.6091 146.125 71.4849 146.451C71.3607 146.776 71.3445 147.132 71.4386 147.468L80.2541 178.372L104.287 172.43L99.8737 154.725L137.38 127.065Z" fill="#87D5F7" stroke="#259AD6" stroke-width="4" stroke-linecap="round" stroke-linejoin="round"/>
<path d="M185.014 203.598L202.166 207.917L210.458 226.922L191.981 223.893L185.014 203.598Z" fill="#FDDCBF" stroke="#ECB072" stroke-width="4" stroke-linecap="round" stroke-linejoin="round"/>
<path d="M241.285 146.666C227.351 146.666 216.056 142.625 216.056 137.64C216.056 132.655 227.351 128.614 241.285 128.614C255.219 128.614 266.514 132.655 266.514 137.64C266.514 142.625 255.218 146.666 241.285 146.666Z" fill="#EAF4F7"/>
<path d="M249.202 197.807L280.674 184.107L293.107 221.985L242.144 250.947L232.803 224.585L252.73 213.376L249.202 197.807Z" fill="#FDDCBF" stroke="#ECB072" stroke-width="4" stroke-linecap="round" stroke-linejoin="round"/>
<path d="M278.43 93.6304C278.43 71.9554 260.838 54.5014 239.52 55.5146C220.432 56.4221 204.16 72.6829 204.16 92.3111C204.16 120.705 241.285 142.599 241.285 142.599C241.285 142.599 278.43 120.705 278.43 93.6304Z" fill="#EE4637"/>
<path d="M254.844 131.612C251.917 133.895 248.307 135.13 244.595 135.117C240.882 135.104 237.281 133.845 234.369 131.541C223.382 122.841 207.49 107.045 207.49 88.4685C207.518 80.5812 210.127 72.9197 214.919 66.6548C208.329 73.3095 204.16 82.3785 204.16 92.3111C204.16 120.705 241.285 142.599 241.285 142.599C241.285 142.599 256.425 133.674 267.374 120.174C263.51 124.315 259.32 128.139 254.844 131.612Z" fill="#CD3C27"/>
<path d="M239.52 55.5146C232.827 55.8594 226.356 58.028 220.807 61.7857C225.177 59.6786 229.925 58.4691 234.77 58.2289C256.088 57.2164 273.681 74.6692 273.681 96.3446C273.681 117.573 250.846 135.616 240.984 142.418C241.177 142.536 241.284 142.6 241.284 142.6C241.284 142.6 278.43 120.705 278.43 93.6304C278.43 71.9554 260.838 54.5014 239.52 55.5146Z" fill="#F07378"/>
<path d="M241.285 108.227C238.262 108.227 235.307 107.331 232.794 105.651C230.28 103.972 228.321 101.585 227.164 98.7924C226.008 95.9997 225.705 92.9267 226.294 89.962C226.884 86.9972 228.34 84.2739 230.477 82.1365C232.615 79.999 235.338 78.5433 238.303 77.9536C241.267 77.3638 244.34 77.6665 247.133 78.8232C249.926 79.98 252.313 81.9389 253.992 84.4523C255.671 86.9657 256.568 89.9206 256.568 92.9434C256.568 96.9968 254.958 100.884 252.092 103.75C249.225 106.617 245.338 108.227 241.285 108.227Z" fill="white"/>
<path d="M241.285 108.227C238.262 108.227 235.307 107.331 232.794 105.651C230.28 103.972 228.321 101.585 227.164 98.7924C226.008 95.9997 225.705 92.9267 226.294 89.962C226.884 86.9972 228.34 84.2739 230.477 82.1365C232.615 79.999 235.338 78.5433 238.303 77.9536C241.267 77.3638 244.34 77.6665 247.133 78.8232C249.926 79.98 252.313 81.9389 253.992 84.4523C255.671 86.9657 256.568 89.9206 256.568 92.9434C256.568 96.9968 254.958 100.884 252.092 103.75C249.225 106.617 245.338 108.227 241.285 108.227Z" stroke="#363A5A" stroke-width="6" stroke-miterlimit="10"/>
<path d="M278.43 93.6304C278.43 71.9554 260.838 54.5014 239.52 55.5146C220.432 56.4221 204.16 72.6829 204.16 92.3111C204.16 120.705 241.285 142.599 241.285 142.599C241.285 142.599 278.43 120.705 278.43 93.6304Z" stroke="#363A5A" stroke-width="6" stroke-linecap="round" stroke-linejoin="round"/>
</svg>
