<svg width="375" height="375" viewBox="0 0 375 375" fill="none" xmlns="http://www.w3.org/2000/svg">
<path d="M182.7 318.525C211.902 318.525 235.575 317.148 235.575 315.45C235.575 313.752 211.902 312.375 182.7 312.375C153.498 312.375 129.825 313.752 129.825 315.45C129.825 317.148 153.498 318.525 182.7 318.525Z" fill="#D1D3D4"/>
<path d="M123.75 181.8C123.45 182.175 122.475 203.25 121.425 204.375C118.5 207.3 118.875 201.225 118.875 201.225C118.875 201.225 113.25 213.525 109.95 212.55C103.95 210.825 110.175 196.65 111.675 193.725C113.1 188.1 113.325 176.85 113.325 176.85" fill="white"/>
<path d="M110.25 213.15C110.1 213.15 109.95 213.15 109.725 213.075C108.6 212.775 107.7 211.95 107.325 210.9C105.375 206.325 109.8 196.125 111.15 193.575C112.575 188.025 112.725 177 112.725 176.925C112.725 176.625 112.95 176.4 113.25 176.4C113.55 176.4 113.775 176.625 113.775 176.925C113.775 177.375 113.55 188.325 112.125 193.95L112.05 194.025C110.85 196.275 106.425 206.325 108.225 210.525C108.525 211.275 109.2 211.875 109.95 212.1C111.9 212.7 115.95 205.95 118.275 201C118.35 200.775 118.65 200.625 118.875 200.7C119.1 200.775 119.25 201 119.25 201.225C119.175 202.65 119.4 204.375 119.85 204.6C120 204.675 120.375 204.525 120.9 204C121.5 203.1 122.175 193.125 122.55 187.8C123 181.8 123 181.725 123.15 181.5C123.3 181.275 123.675 181.2 123.9 181.425C124.05 181.575 124.125 181.8 124.05 182.025C123.975 182.475 123.75 185.1 123.6 187.875C122.85 198.825 122.325 204.075 121.65 204.825C120.825 205.65 120.075 205.95 119.4 205.65C118.725 205.35 118.35 204.375 118.275 203.4C116.625 206.925 113.1 213.15 110.25 213.15Z" fill="#231F20"/>
<path d="M200.4 134.7L213 129.225C213 129.225 215.55 123.15 218.025 122.4C220.5 121.65 227.025 121.2 227.025 121.2C228.675 122.4 229.5 124.5 228.975 126.525C228.225 130.2 223.35 136.125 216.525 137.625L204.15 148.575" fill="white"/>
<path d="M204.075 149.1C203.925 149.1 203.775 149.025 203.7 148.95C203.475 148.725 203.55 148.425 203.775 148.2L216.225 137.25C216.3 137.175 216.375 137.175 216.45 137.1C223.125 135.675 227.775 129.9 228.45 126.45C228.9 124.725 228.3 122.85 226.875 121.8C225.825 121.875 220.35 122.325 218.175 122.925C216.3 123.45 214.125 127.8 213.525 129.45C213.45 129.6 213.375 129.675 213.225 129.75L200.625 135.225C200.4 135.375 200.025 135.225 199.95 135C199.8 134.775 199.95 134.4 200.175 134.325H200.25L212.625 128.925C213.15 127.725 215.4 122.775 217.875 122.025C220.35 121.275 226.725 120.825 227.025 120.825C227.1 120.825 227.25 120.825 227.325 120.9C229.2 122.175 230.1 124.575 229.5 126.75C228.75 130.575 223.95 136.575 216.825 138.225L204.525 149.1C204.3 149.025 204.225 149.1 204.075 149.1Z" fill="#231F20"/>
<path d="M225.975 113.7L210.375 133.65L219.45 134.7L233.925 115.35L225.975 113.7Z" fill="#231F20"/>
<path d="M219.45 135.225L210.3 134.175C210.075 134.175 209.925 134.025 209.85 133.875C209.775 133.725 209.775 133.5 209.925 133.35L225.525 113.475C225.675 113.325 225.825 113.25 226.05 113.325L234 114.975C234.3 115.05 234.45 115.35 234.375 115.575C234.375 115.65 234.3 115.725 234.3 115.8L219.9 135C219.75 135.15 219.6 135.225 219.45 135.225ZM211.35 133.2L219.225 134.1L233.025 115.65L226.2 114.225L211.35 133.2Z" fill="#231F20"/>
<path d="M226.425 114.075L212.7 131.625L218.775 132.45L232.35 115.35L226.425 114.075Z" fill="white"/>
<path d="M210.375 145.8L204.225 131.475L173.175 145.8L176.25 170.55C176.25 170.55 204.15 153.9 210.375 145.8Z" fill="#FF2D2D"/>
<path d="M208.125 282.75C208.125 282.75 214.725 299.025 214.125 299.025C213.525 299.025 199.275 301.275 199.275 301.275C199.275 301.275 192.825 287.925 192.9 287.625C192.975 287.325 208.125 282.75 208.125 282.75Z" fill="white"/>
<path d="M199.275 301.8C199.05 301.8 198.9 301.65 198.825 301.5C192.225 287.925 192.375 287.625 192.525 287.325C192.675 287.025 192.75 286.875 207.975 282.15C208.2 282.075 208.5 282.225 208.65 282.45C215.175 298.5 214.8 298.95 214.65 299.25C214.575 299.4 214.35 299.475 214.2 299.475C213.6 299.475 205.05 300.825 199.425 301.725L199.275 301.8ZM193.575 287.925C194.25 289.575 197.4 296.25 199.575 300.75C202.275 300.3 211.2 298.875 213.525 298.575C213 296.625 209.925 288.675 207.75 283.425C202.8 284.925 195.3 287.25 193.575 287.925Z" fill="#231F20"/>
<path d="M214.125 299.025C214.125 299.025 237.525 300.75 238.2 305.025C238.875 309.3 203.1 315.45 203.1 315.45L199.275 301.275L214.125 299.025Z" fill="#231F20"/>
<path d="M203.1 315.975C202.875 315.975 202.65 315.825 202.575 315.6L198.75 301.425C198.675 301.275 198.75 301.125 198.825 300.975C198.9 300.825 199.05 300.75 199.2 300.75L214.05 298.5H214.125C218.1 298.8 238.05 300.525 238.65 304.95C239.25 309.375 211.65 314.475 203.1 315.975ZM199.95 301.725L203.55 314.85C220.35 311.925 238.05 307.425 237.675 305.1C237.45 303.6 230.85 300.75 214.125 299.55L199.95 301.725Z" fill="#231F20"/>
<path d="M159 279.225L152.25 285L142.95 272.325L152.775 264.375L159 279.225Z" fill="white"/>
<path d="M152.25 285.525C152.025 285.525 151.875 285.45 151.8 285.3L142.5 272.625C142.35 272.4 142.35 272.1 142.575 271.875L152.4 264C152.55 263.925 152.7 263.85 152.85 263.925C153 264 153.15 264.075 153.225 264.225L159.45 279C159.525 279.225 159.45 279.45 159.3 279.6L152.55 285.375C152.55 285.45 152.4 285.525 152.25 285.525ZM143.7 272.4L152.325 284.25L158.4 279.075L152.55 265.275L143.7 272.4Z" fill="#231F20"/>
<path d="M152.25 285C152.25 285 156.975 309.375 152.925 308.55C148.875 307.725 132.75 280.8 132.75 280.8L142.95 272.25L152.25 285Z" fill="#231F20"/>
<path d="M153.15 309.075C153.075 309.075 152.925 309.075 152.85 309.075C148.725 308.25 134.025 283.875 132.3 281.1C132.15 280.875 132.225 280.575 132.375 280.425L142.575 271.875C142.65 271.8 142.8 271.725 142.95 271.725C143.1 271.725 143.25 271.8 143.325 271.95L152.625 284.625C152.7 284.7 152.7 284.775 152.7 284.85C152.7 284.925 153.75 290.1 154.425 295.65C155.85 306.975 154.5 308.25 154.05 308.7C153.825 309 153.525 309.075 153.15 309.075ZM133.5 280.95C139.95 291.675 150.375 307.5 153.075 308.025C153.15 308.025 153.3 308.025 153.375 307.95C155.1 306.3 153.3 293.175 151.8 285.225L142.95 273.075L133.5 280.95Z" fill="#231F20"/>
<path d="M180.15 168.75C180.15 168.75 220.5 225.6 220.575 230.7C220.725 240.6 159.375 283.275 159.375 283.275L149.025 264.45L186.675 230.55L151.35 166.275L180.15 168.75Z" fill="#231F20"/>
<path d="M159.375 283.8H159.225C159.075 283.8 158.925 283.65 158.925 283.575L148.575 264.75C148.425 264.525 148.5 264.3 148.65 264.075L186 230.475L150.825 166.5C150.75 166.35 150.75 166.125 150.825 165.975C150.9 165.825 151.125 165.75 151.275 165.75L180.15 168.225C180.3 168.225 180.45 168.3 180.525 168.45C184.65 174.3 220.95 225.6 221.1 230.7C221.25 240.75 162.15 281.925 159.675 283.725C159.6 283.725 159.45 283.8 159.375 283.8ZM149.7 264.525L159.6 282.45C162.3 280.575 176.1 270.825 189.75 260.25C216.225 239.7 220.125 232.875 220.05 230.7C219.975 226.65 191.175 185.175 179.85 169.2L152.25 166.875L187.125 230.325C187.275 230.55 187.2 230.775 187.05 231L149.7 264.525Z" fill="#231F20"/>
<path d="M140.025 174.975L194.175 296.025L214.875 287.4L172.5 168.525L140.025 174.975Z" fill="#231F20"/>
<path d="M194.175 296.55C193.95 296.55 193.8 296.4 193.725 296.25L139.575 175.2C139.425 174.975 139.5 174.675 139.8 174.525C139.875 174.525 139.875 174.45 139.95 174.45L172.425 168C172.65 167.925 172.95 168.075 173.025 168.3L215.4 287.25C215.475 287.55 215.325 287.775 215.1 287.925L194.4 296.55C194.325 296.55 194.25 296.55 194.175 296.55ZM140.775 175.35L194.475 295.35L214.275 287.1L172.2 169.125L140.775 175.35Z" fill="#231F20"/>
<path d="M201.675 248.85C201.45 248.85 201.225 248.7 201.15 248.475L176.85 182.7C176.775 182.55 176.85 182.325 176.925 182.175L181.125 176.475C181.275 176.25 181.575 176.175 181.875 176.325C182.1 176.475 182.175 176.775 182.025 177.075C182.025 177.075 182.025 177.15 181.95 177.15L177.9 182.625L202.125 248.175C202.2 248.475 202.125 248.775 201.825 248.85C201.825 248.85 201.75 248.85 201.675 248.85Z" fill="white"/>
<path d="M156.45 91.125C155.25 91.2 154.2 90.75 154.05 89.1L153.45 78.525C153.3 75.375 153.075 72.075 153.75 69C154.425 66 156.3 62.925 159.375 62.325C160.425 62.1 161.475 62.25 162.45 62.025C164.4 61.5 165.675 59.775 167.325 58.65C169.95 56.85 173.325 56.55 176.25 57.9C177 58.35 177.75 58.65 178.575 58.95C181.125 59.7 183.675 57.9 186.3 57.675C190.275 57.3 193.8 60.525 195.375 64.2C197.55 69.15 196.575 75.975 191.775 78.375C187.95 80.25 183.975 79.125 180.075 79.275C175.95 79.425 174.075 82.575 171.075 84.975C168.225 87.3 164.85 88.875 161.175 89.55C159.825 89.775 159.375 90.375 158.175 90.75C157.575 90.975 156.975 91.05 156.45 91.125Z" fill="white"/>
<path d="M156.225 91.65C154.875 91.8 153.675 90.825 153.525 89.475C153.525 89.4 153.525 89.25 153.525 89.175L152.925 78.6C152.775 75.45 152.55 72.15 153.3 68.925C153.975 65.925 155.925 62.475 159.3 61.875C159.825 61.8 160.275 61.725 160.8 61.725C161.325 61.725 161.85 61.65 162.375 61.575C163.575 61.125 164.625 60.45 165.525 59.55C166.05 59.1 166.575 58.65 167.1 58.275C169.875 56.325 173.475 56.025 176.55 57.45C176.775 57.6 177.075 57.675 177.3 57.825C177.75 58.125 178.275 58.35 178.8 58.5C180.225 58.875 181.65 58.425 183.225 57.975C184.2 57.6 185.25 57.375 186.3 57.225C190.65 56.85 194.325 60.375 195.9 64.05C198.15 69.15 197.175 76.35 192.075 78.9C189.3 80.25 186.45 80.1 183.675 79.95C182.475 79.875 181.35 79.8 180.15 79.875C177.3 80.025 175.65 81.6 173.7 83.4C173.025 84.075 172.275 84.75 171.45 85.425C168.525 87.825 165.075 89.4 161.325 90.075C160.8 90.15 160.2 90.375 159.75 90.675C159.3 90.9 158.925 91.125 158.4 91.275C157.8 91.5 157.2 91.575 156.525 91.65H156.225ZM172.425 57.6C170.7 57.6 169.05 58.125 167.625 59.1C167.1 59.475 166.575 59.85 166.125 60.3C165.15 61.35 163.95 62.1 162.6 62.55C162 62.7 161.4 62.775 160.8 62.775C160.35 62.775 159.9 62.85 159.45 62.925C156.525 63.45 154.875 66.525 154.275 69.225C153.6 72.3 153.75 75.525 153.975 78.6L154.575 89.175C154.65 90.3 155.175 90.75 156.375 90.675C157.35 90.6 158.25 90.3 159.15 89.85C159.75 89.475 160.35 89.25 161.025 89.1C164.55 88.425 167.85 86.85 170.625 84.6C171.375 84 172.125 83.325 172.8 82.65C174.825 80.775 176.7 78.975 179.925 78.825C181.125 78.75 182.4 78.825 183.6 78.9C186.375 79.05 188.925 79.2 191.475 78C196.05 75.75 196.95 69.15 194.85 64.5C193.425 61.275 190.125 57.975 186.3 58.275C185.325 58.425 184.35 58.65 183.375 58.95C181.725 59.475 180.075 60 178.35 59.475C177.75 59.25 177.225 59.025 176.7 58.725C176.475 58.575 176.25 58.5 175.95 58.35C174.825 57.825 173.625 57.6 172.425 57.6Z" fill="#231F20"/>
<path d="M180.75 81.225C180.75 81.225 183.6 88.275 182.475 89.4C181.35 90.525 178.725 89.1 178.725 89.1" fill="white"/>
<path d="M181.2 90.375C180.225 90.3 179.25 90 178.425 89.55C178.2 89.4 178.05 89.1 178.2 88.875C178.35 88.65 178.65 88.5 178.875 88.65C179.475 88.95 181.35 89.775 182.025 89.1C182.475 88.65 181.65 85.05 180.225 81.45C180.15 81.15 180.225 80.85 180.525 80.775C180.825 80.7 181.125 80.775 181.2 81.075C182.1 83.325 184.05 88.575 182.775 89.85C182.4 90.225 181.8 90.375 181.2 90.375Z" fill="#231F20"/>
<path d="M181.5 72.825C183.675 75.525 182.025 79.875 181.35 82.8C180.45 86.925 179.475 91.05 178.425 95.1C177.75 97.65 170.925 96.375 169.95 95.325L168.825 104.1C168.825 104.1 166.275 108.525 161.325 104.925C156.375 101.325 155.775 97.5 155.775 97.5L158.7 85.65C158.7 85.65 163.2 86.625 166.95 81.825C170.7 77.025 172.275 68.85 172.275 68.85C172.275 68.85 179.4 70.275 181.5 72.825Z" fill="white"/>
<path d="M165 106.875C163.5 106.8 162.15 106.275 160.95 105.3C155.85 101.55 155.25 97.725 155.25 97.575C155.25 97.5 155.25 97.425 155.25 97.35L158.175 85.5C158.25 85.2 158.55 85.05 158.775 85.125C158.925 85.125 162.975 85.95 166.5 81.45C170.1 76.8 171.675 68.7 171.675 68.625C171.675 68.475 171.75 68.4 171.9 68.325C172.05 68.25 172.125 68.25 172.275 68.25C172.575 68.325 179.7 69.75 181.875 72.45C183.825 74.85 182.925 78.45 182.25 81.3C182.1 81.825 181.95 82.35 181.875 82.875C180.975 87 180 91.125 178.95 95.25C178.65 96.15 177.9 96.75 177 96.9C174.75 97.275 172.425 97.05 170.325 96.15L169.275 104.175C169.275 104.25 169.275 104.325 169.2 104.4C168.45 105.6 167.25 106.5 165.9 106.8C165.6 106.875 165.3 106.875 165 106.875ZM156.3 97.5C156.45 98.1 157.35 101.325 161.625 104.475C163.125 105.6 164.475 105.975 165.75 105.75C166.8 105.45 167.7 104.85 168.3 103.95L169.425 95.25C169.425 94.95 169.725 94.8 170.025 94.8C170.175 94.8 170.25 94.875 170.325 94.95C170.925 95.475 174.6 96.45 176.775 95.85C177.45 95.7 177.825 95.325 177.975 94.95C179.025 90.9 180 86.775 180.9 82.65C180.975 82.125 181.125 81.6 181.275 81C181.95 78.375 182.775 75.075 181.125 73.05C179.475 71.025 174.3 69.675 172.65 69.3C172.2 71.25 170.625 77.85 167.325 82.05C164.025 86.25 160.425 86.25 159.075 86.175L156.3 97.5Z" fill="#231F20"/>
<path d="M179.025 92.025C179.025 92.025 175.425 93.375 174.375 89.7L179.025 92.025Z" fill="white"/>
<path d="M177.6 92.775C175.8 92.85 174.225 91.575 173.925 89.85C173.85 89.55 174 89.25 174.3 89.175C174.6 89.1 174.9 89.25 174.975 89.55C175.125 90.375 175.65 91.05 176.325 91.425C177.15 91.8 178.05 91.8 178.875 91.5C179.175 91.35 179.475 91.5 179.55 91.725C179.7 92.025 179.55 92.325 179.325 92.4H179.25C178.65 92.7 178.125 92.775 177.6 92.775Z" fill="#231F20"/>
<path d="M172.275 82.275C172.35 81.225 172.2 80.175 171.675 79.2C171.375 78.45 171 77.7 170.55 77.025C170.025 76.35 169.275 75.9 168.45 75.9C167.7 75.9 167.025 76.275 166.575 76.875C166.125 77.475 165.825 78.075 165.675 78.825C164.85 81.975 165.825 85.275 168.15 87.525L168 87.225" fill="white"/>
<path d="M168.15 87.975C168 87.975 167.85 87.9 167.775 87.825C165.3 85.425 164.325 81.9 165.15 78.6C165.3 77.85 165.675 77.1 166.2 76.425C166.725 75.75 167.55 75.3 168.45 75.3C169.425 75.375 170.325 75.825 170.925 76.65C171.45 77.325 171.825 78.15 172.125 78.975C172.65 80.025 172.875 81.15 172.725 82.35C172.65 82.65 172.425 82.8 172.125 82.8C171.825 82.725 171.675 82.5 171.675 82.2C171.75 81.225 171.525 80.25 171.15 79.425C170.925 78.675 170.55 78 170.1 77.4C169.725 76.875 169.05 76.5 168.45 76.5C167.85 76.5 167.325 76.8 166.95 77.25C166.575 77.775 166.275 78.375 166.125 78.975C165.45 81.75 166.125 84.6 168.075 86.775C168.225 86.775 168.3 86.925 168.375 87L168.525 87.3C168.675 87.525 168.6 87.825 168.45 87.975C168.375 87.975 168.225 87.975 168.15 87.975Z" fill="#231F20"/>
<path d="M169.95 95.325C169.95 95.325 166.65 93.525 165.525 90.75C165.525 90.75 164.475 97.05 169.5 100.05L169.95 95.325Z" fill="#231F20"/>
<path d="M169.5 100.575C169.425 100.575 169.35 100.575 169.2 100.5C163.95 97.425 165 90.75 165 90.675C165.075 90.45 165.225 90.3 165.45 90.225C165.675 90.225 165.9 90.3 165.975 90.525C167.025 93.075 170.175 94.8 170.175 94.8C170.325 94.875 170.475 95.1 170.475 95.325L170.025 100.05C170.025 100.2 169.875 100.35 169.725 100.5C169.65 100.575 169.575 100.575 169.5 100.575ZM165.975 92.55C166.05 94.35 166.575 97.275 169.05 99.15L169.425 95.625C168.075 94.8 166.95 93.75 165.975 92.55Z" fill="#231F20"/>
<path d="M179.54 78.1429C179.839 77.3705 179.832 76.6472 179.523 76.5274C179.214 76.4076 178.721 76.9367 178.421 77.7091C178.122 78.4815 178.129 79.2048 178.438 79.3246C178.747 79.4444 179.24 78.9153 179.54 78.1429Z" fill="#231F20"/>
<path d="M148.725 98.325C148.725 98.325 167.025 99.075 171.675 108.975C176.325 118.875 174.825 152.775 177.525 155.625C180.225 158.475 186.675 172.425 186.45 173.025C186.225 173.625 137.625 178.875 137.625 178.875C137.625 178.875 137.1 167.775 134.85 153.075C132.6 138.375 135.225 96.525 148.725 98.325Z" fill="#FF2D2D"/>
<path d="M156.825 195.975C156.675 195.975 156.6 195.9 156.525 195.9C156.3 195.75 156.225 195.375 156.45 195.15C163.05 186.825 159.675 182.4 159.525 182.175C159.375 181.95 159.375 181.65 159.6 181.425C159.825 181.2 160.125 181.275 160.35 181.5C160.5 181.725 164.475 186.75 157.275 195.75C157.125 195.9 156.975 195.975 156.825 195.975Z" fill="white"/>
<path d="M142.65 98.25C142.65 98.25 114.675 128.625 109.875 185.55L125.625 185.25C125.625 185.25 132.6 156 152.175 123.9L142.65 98.25Z" fill="#FF2D2D"/>
<path d="M184.8 168.6H184.725C184.5 168.525 184.35 168.375 184.275 168.15C184.125 167.625 182.4 164.775 180.975 162.225C178.875 158.625 176.7 154.875 176.325 153.75C175.875 152.475 175.2 143.25 174.45 131.25C174.15 126 173.85 121.5 173.625 119.775C173.1 116.175 172.275 112.575 171.15 109.125C171.075 108.825 171.15 108.525 171.45 108.45C171.75 108.375 172.05 108.45 172.125 108.75C172.125 108.75 172.125 108.75 172.125 108.825C173.25 112.35 174.15 116.025 174.6 119.7C174.75 121.425 175.05 125.925 175.425 131.175C176.025 140.025 176.775 152.1 177.225 153.375C177.6 154.425 179.85 158.325 181.8 161.7C185.325 167.775 185.325 167.85 185.25 168.225C185.25 168.45 185.1 168.6 184.8 168.6Z" fill="#231F20"/>
<path d="M127.95 175.875C127.875 175.875 127.8 175.875 127.8 175.875C127.5 175.8 127.35 175.5 127.5 175.2C127.65 174.825 141.075 136.8 155.25 118.725C155.4 118.5 155.775 118.425 156 118.65C156.225 118.8 156.3 119.175 156.075 119.4C142.05 137.325 128.625 175.2 128.475 175.575C128.4 175.8 128.175 175.875 127.95 175.875Z" fill="#231F20"/>
<path d="M221.7 132.45C221.775 128.7 222.45 124.725 224.85 121.8C225.45 121.05 226.425 120.375 227.25 120.75C227.85 121.125 228.225 121.725 228.225 122.4C228.225 123.075 228.375 123.75 228.6 124.35" fill="white"/>
<path d="M221.7 132.975C221.4 132.975 221.175 132.75 221.175 132.45C221.25 127.65 222.375 124.05 224.475 121.5C225.45 120.3 226.575 119.85 227.55 120.3C228.3 120.75 228.825 121.5 228.825 122.4C228.825 122.55 228.9 122.775 228.9 122.925C228.9 123.375 229.05 123.825 229.2 124.2C229.35 124.425 229.2 124.8 228.975 124.875C228.75 125.025 228.375 124.875 228.225 124.65C228 124.125 227.85 123.6 227.85 123C227.85 122.85 227.85 122.7 227.775 122.55C227.7 122.175 227.55 121.5 227.1 121.275C226.65 121.05 225.75 121.575 225.3 122.175C223.35 124.575 222.375 127.95 222.225 132.525C222.225 132.75 222 133.05 221.7 132.975Z" fill="#231F20"/>
<path d="M145.875 87.3C144.45 86.325 142.875 85.575 141.225 85.2C138.975 84.9 136.725 85.725 134.7 86.775C132 88.125 129.675 90.15 128.025 92.7C126.45 95.25 126.075 98.625 127.425 101.325C128.775 103.875 131.475 105.375 134.25 105.975C137.025 106.575 139.95 106.35 142.8 106.125C145.5 105.9 148.275 105.9 150.975 106.05C156.6 106.5 161.925 108.3 167.475 109.35C170.925 110.025 169.575 106.35 168.225 105C165.975 102.75 163.65 100.575 161.25 98.55C156.45 94.425 151.275 90.675 145.875 87.3Z" fill="#FF2D2D"/>
<path d="M158.85 106.875C158.775 106.875 158.625 106.875 158.55 106.8C148.125 100.05 138.225 105.9 138.075 105.9C137.85 106.05 137.475 105.975 137.325 105.75C137.175 105.525 137.25 105.225 137.475 105C137.475 105 137.475 105 137.55 105C137.625 104.925 148.125 98.775 159.15 105.9C159.375 106.05 159.45 106.35 159.3 106.65C159.225 106.8 159.075 106.875 158.85 106.875Z" fill="#231F20"/>
<path d="M260.1 68.25H215.1C212.475 68.25 210.375 70.35 210.375 72.975V96.975C210.375 99.6 212.475 101.7 215.1 101.7H220.5V111.15L225.975 101.7H260.025C262.65 101.7 264.75 99.6 264.75 96.975V72.975C264.75 70.35 262.65 68.25 260.1 68.25Z" fill="white"/>
<path d="M220.5 111.6H220.35C220.125 111.525 219.975 111.3 219.975 111.075V102.15H215.1C212.175 102.15 209.85 99.825 209.85 96.9V72.9C209.85 69.975 212.175 67.65 215.1 67.65H260.1C263.025 67.65 265.35 69.975 265.35 72.9V96.9C265.35 99.825 263.025 102.15 260.1 102.15H226.35L221.025 111.3C220.875 111.525 220.725 111.6 220.5 111.6ZM215.1 68.775C212.775 68.775 210.9 70.65 210.9 72.975V96.975C210.9 99.3 212.775 101.175 215.1 101.175H220.5C220.8 101.175 221.025 101.4 221.025 101.7V109.125L225.525 101.4C225.6 101.25 225.825 101.175 225.975 101.1H260.025C262.35 101.1 264.225 99.225 264.225 96.9V72.9C264.225 70.575 262.35 68.7 260.025 68.7L215.1 68.775Z" fill="#D1D3D4"/>
<path d="M237.6 92.85H229.35C229.05 92.85 228.75 92.625 228.75 92.325C228.75 92.175 228.75 92.025 228.825 91.875C229.125 91.35 229.5 90.9 229.8 90.375C230.4 89.475 230.85 88.425 231 87.375C231 87.15 231.075 86.925 231.075 86.7V82.2C231.075 81.375 231.225 80.475 231.45 79.725C232.125 77.85 233.7 76.35 235.65 75.9C235.725 75.9 235.8 75.825 235.8 75.75C235.8 75.525 235.8 75.3 235.8 75.075C235.8 74.1 236.55 73.275 237.525 73.275C238.425 73.275 239.175 73.95 239.325 74.85C239.325 75.15 239.325 75.45 239.325 75.825C239.325 75.9 239.325 75.975 239.475 75.975C241.275 76.425 242.85 77.775 243.525 79.5C243.825 80.25 244.05 81.075 244.05 81.9C244.05 82.8 244.05 83.625 244.05 84.525C244.05 85.275 244.05 86.025 244.05 86.775C244.05 87.6 244.2 88.35 244.575 89.1C245.025 90 245.475 90.825 246.075 91.65C246.15 91.8 246.225 91.875 246.3 92.025C246.45 92.25 246.45 92.475 246.3 92.625C246.225 92.85 246 92.925 245.775 92.925L237.6 92.85ZM238.2 75.675V75.075C238.2 74.775 237.975 74.475 237.6 74.475C237.3 74.475 237.075 74.7 237 74.925C237 75.15 237 75.45 237 75.675H238.2Z" fill="#D1D3D4"/>
<path d="M240.3 94.05C239.625 95.55 237.9 96.225 236.475 95.55C235.8 95.25 235.275 94.725 234.975 94.05H240.3Z" fill="#D1D3D4"/>
<path d="M260.25 106.95C264.309 106.95 267.6 103.659 267.6 99.6C267.6 95.5407 264.309 92.25 260.25 92.25C256.191 92.25 252.9 95.5407 252.9 99.6C252.9 103.659 256.191 106.95 260.25 106.95Z" fill="white"/>
<path d="M260.25 107.475C255.9 107.475 252.375 103.95 252.375 99.6C252.375 95.25 255.9 91.725 260.25 91.725C264.6 91.725 268.125 95.25 268.125 99.6C268.125 103.95 264.6 107.475 260.25 107.475ZM260.25 92.775C256.5 92.775 253.425 95.85 253.425 99.6C253.425 103.35 256.5 106.425 260.25 106.425C264 106.425 267.075 103.35 267.075 99.6C267.075 95.85 264 92.775 260.25 92.775Z" fill="#D1D3D4"/>
<path d="M259.8 96.75L258 98.175L257.1 97.125L259.875 94.875H261.225V103.8H259.725L259.8 96.75Z" fill="#D1D3D4"/>
</svg>
