<svg width="24" height="27" viewBox="0 0 24 27" fill="black" xmlns="http://www.w3.org/2000/svg">
<path d="M12 18.5291C12.1747 18.5291 12.3207 18.4655 12.438 18.3385C12.556 18.2114 12.615 18.0542 12.615 17.8668C12.615 17.6795 12.556 17.5219 12.438 17.3941C12.32 17.2663 12.174 17.2028 12 17.2035C11.826 17.2042 11.68 17.2678 11.562 17.3941C11.444 17.5204 11.385 17.678 11.385 17.8668C11.385 18.0556 11.444 18.2128 11.562 18.3385C11.68 18.4641 11.826 18.5276 12 18.5291ZM11.5 15.3406H12.5V8.79686H11.5V15.3406ZM8.673 22.3808L4 17.3586V10.1838L8.664 5.15186H15.327L20 10.1741V17.3489L15.336 22.3808H8.673ZM9.1 21.304H14.9L19 16.8891V10.6436L14.9 6.22866H9.1L5 10.6436V16.8891L9.1 21.304Z" fill="black"/>
</svg>
