<svg width="45" height="35" viewBox="0 0 45 35" fill="none" xmlns="http://www.w3.org/2000/svg">
<path d="M31.5 30.3333V35H0V30.3333C0 30.3333 0 21 15.75 21C31.5 21 31.5 30.3333 31.5 30.3333ZM23.625 8.16673C23.625 6.55152 23.1631 4.97258 22.2978 3.62959C21.4325 2.28659 20.2026 1.23985 18.7636 0.621735C17.3247 0.0036211 15.7413 -0.158106 14.2137 0.157006C12.6861 0.472118 11.2829 1.24992 10.1815 2.39204C9.0802 3.53417 8.33018 4.98932 8.02632 6.5735C7.72246 8.15767 7.87841 9.79971 8.47445 11.292C9.07049 12.7842 10.0798 14.0597 11.3749 14.9571C12.6699 15.8544 14.1925 16.3334 15.75 16.3334C17.8386 16.3334 19.8416 15.473 21.3185 13.9414C22.7953 12.4099 23.625 10.3327 23.625 8.16673ZM31.365 21C32.7482 22.1101 33.88 23.521 34.6808 25.1335C35.4816 26.746 35.9319 28.5209 36 30.3333V35H45V30.3333C45 30.3333 45 21.8634 31.365 21ZM29.25 8.58583e-05C27.7015 -0.00738344 26.1873 0.472657 24.9075 1.37675C26.2742 3.35713 27.0091 5.73141 27.0091 8.16673C27.0091 10.6021 26.2742 12.9763 24.9075 14.9567C26.1873 15.8608 27.7015 16.3408 29.25 16.3334C31.3386 16.3334 33.3416 15.473 34.8185 13.9414C36.2953 12.4099 37.125 10.3327 37.125 8.16673C37.125 6.0008 36.2953 3.92358 34.8185 2.39204C33.3416 0.860498 31.3386 8.58583e-05 29.25 8.58583e-05Z" fill="#FF2D2D"/>
</svg>
