<svg width="24" height="24" viewBox="0 0 24 24" fill="none" xmlns="http://www.w3.org/2000/svg">
<path d="M22.6 21L16.3 14.7C15.8 15.1 15.225 15.4167 14.575 15.65C13.925 15.8833 13.2333 16 12.5 16C10.6833 16 9.146 15.3707 7.888 14.112C6.63 12.8533 6.00067 11.316 6 9.5C5.99933 7.684 6.62867 6.14667 7.888 4.888C9.14733 3.62933 10.6847 3 12.5 3C14.3153 3 15.853 3.62933 17.113 4.888C18.373 6.14667 19.002 7.684 19 9.5C19 10.2333 18.8833 10.925 18.65 11.575C18.4167 12.225 18.1 12.8 17.7 13.3L24 19.6L22.6 21ZM12.5 14C13.75 14 14.8127 13.5627 15.688 12.688C16.5633 11.8133 17.0007 10.7507 17 9.5C16.9993 8.24933 16.562 7.187 15.688 6.313C14.814 5.439 13.7513 5.00133 12.5 5C11.2487 4.99867 10.1863 5.43633 9.313 6.313C8.43967 7.18967 8.002 8.252 8 9.5C7.998 10.748 8.43567 11.8107 9.313 12.688C10.1903 13.5653 11.2527 14.0027 12.5 14Z" fill="#808080"/>
</svg>
