<svg width="35" height="35" viewBox="0 0 35 35" fill="none" xmlns="http://www.w3.org/2000/svg">
<path d="M17.5 12.3959C25.5541 12.3959 32.0833 10.4371 32.0833 8.02087C32.0833 5.60463 25.5541 3.64587 17.5 3.64587C9.44584 3.64587 2.91666 5.60463 2.91666 8.02087C2.91666 10.4371 9.44584 12.3959 17.5 12.3959Z" stroke="#FF2D2D" stroke-width="4" stroke-linecap="round" stroke-linejoin="round"/>
<path d="M7.85311 11.3021C4.82707 12.1042 2.91666 13.2767 2.91666 14.5834C2.91666 16.9998 9.44561 18.9584 17.5 18.9584C25.5544 18.9584 32.0833 16.9998 32.0833 14.5834C32.0833 13.2767 30.1736 12.1042 27.1469 11.3021C24.5758 11.9824 21.1983 12.3959 17.5 12.3959C13.8017 12.3959 10.4249 11.9824 7.85311 11.3021Z" stroke="#FF2D2D" stroke-width="4" stroke-linecap="round" stroke-linejoin="round"/>
<path d="M7.85311 17.8646C4.82707 18.6667 2.91666 19.8392 2.91666 21.1459C2.91666 23.5623 9.44561 25.5209 17.5 25.5209C25.5544 25.5209 32.0833 23.5623 32.0833 21.1459C32.0833 19.8392 30.1736 18.6667 27.1469 17.8646C24.5758 18.5449 21.1983 18.9584 17.5 18.9584C13.8017 18.9584 10.4249 18.5449 7.85311 17.8646Z" stroke="#FF2D2D" stroke-width="4" stroke-linecap="round" stroke-linejoin="round"/>
<path d="M7.85311 24.4271C4.82707 25.2292 2.91666 26.4017 2.91666 27.7084C2.91666 30.1248 9.44561 32.0834 17.5 32.0834C25.5544 32.0834 32.0833 30.1248 32.0833 27.7084C32.0833 26.4017 30.1736 25.2292 27.1469 24.4271C24.5758 25.1082 21.1983 25.5209 17.5 25.5209C13.8017 25.5209 10.4249 25.1082 7.85311 24.4271Z" stroke="#FF2D2D" stroke-width="4" stroke-linecap="round" stroke-linejoin="round"/>
</svg>
