<svg width="25" height="24" viewBox="0 0 25 24" fill="black" xmlns="http://www.w3.org/2000/svg">
<path d="M19.3651 4.91006C18.4483 3.98399 17.3562 3.24973 16.1527 2.75011C14.9491 2.25049 13.6582 1.99552 12.3551 2.00006C6.89505 2.00006 2.44505 6.45006 2.44505 11.9101C2.44505 13.6601 2.90505 15.3601 3.76505 16.8601L2.36505 22.0001L7.61505 20.6201C9.06505 21.4101 10.6951 21.8301 12.3551 21.8301C17.8151 21.8301 22.2651 17.3801 22.2651 11.9201C22.2651 9.27006 21.2351 6.78006 19.3651 4.91006ZM12.3551 20.1501C10.8751 20.1501 9.42505 19.7501 8.15505 19.0001L7.85505 18.8201L4.73505 19.6401L5.56505 16.6001L5.36505 16.2901C4.5428 14.977 4.10619 13.4593 4.10505 11.9101C4.10505 7.37006 7.80505 3.67006 12.3451 3.67006C14.5451 3.67006 16.6151 4.53006 18.1651 6.09006C18.9325 6.85402 19.5408 7.76272 19.9544 8.76348C20.3681 9.76425 20.5791 10.8372 20.5751 11.9201C20.5951 16.4601 16.8951 20.1501 12.3551 20.1501ZM16.8751 13.9901C16.6251 13.8701 15.4051 13.2701 15.1851 13.1801C14.9551 13.1001 14.7951 13.0601 14.6251 13.3001C14.4551 13.5501 13.9851 14.1101 13.8451 14.2701C13.7051 14.4401 13.5551 14.4601 13.3051 14.3301C13.0551 14.2101 12.2551 13.9401 11.3151 13.1001C10.5751 12.4401 10.0851 11.6301 9.93505 11.3801C9.79505 11.1301 9.91505 11.0001 10.0451 10.8701C10.1551 10.7601 10.2951 10.5801 10.4151 10.4401C10.5351 10.3001 10.5851 10.1901 10.6651 10.0301C10.7451 9.86006 10.7051 9.72006 10.6451 9.60006C10.5851 9.48006 10.0851 8.26006 9.88505 7.76006C9.68505 7.28006 9.47505 7.34006 9.32505 7.33006H8.84505C8.67505 7.33006 8.41505 7.39006 8.18505 7.64006C7.96505 7.89006 7.32505 8.49006 7.32505 9.71006C7.32505 10.9301 8.21505 12.1101 8.33505 12.2701C8.45505 12.4401 10.0851 14.9401 12.5651 16.0101C13.1551 16.2701 13.6151 16.4201 13.9751 16.5301C14.5651 16.7201 15.1051 16.6901 15.5351 16.6301C16.0151 16.5601 17.0051 16.0301 17.2051 15.4501C17.4151 14.8701 17.4151 14.3801 17.3451 14.2701C17.2751 14.1601 17.1251 14.1101 16.8751 13.9901Z" fill="black"/>
</svg>
