<svg width="19" height="19" viewBox="0 0 19 19" fill="black" xmlns="http://www.w3.org/2000/svg">
<path d="M9.55005 3.60107C10.3457 3.60107 11.1088 3.91714 11.6714 4.47975C12.234 5.04236 12.55 5.80542 12.55 6.60107C12.55 7.39672 12.234 8.15979 11.6714 8.72239C11.1088 9.285 10.3457 9.60107 9.55005 9.60107C8.7544 9.60107 7.99134 9.285 7.42873 8.72239C6.86612 8.15979 6.55005 7.39672 6.55005 6.60107C6.55005 5.80542 6.86612 5.04236 7.42873 4.47975C7.99134 3.91714 8.7544 3.60107 9.55005 3.60107ZM9.55005 11.1011C12.865 11.1011 15.55 12.4436 15.55 14.1011V15.6011H3.55005V14.1011C3.55005 12.4436 6.23505 11.1011 9.55005 11.1011Z" fill="black"/>
</svg>
