<svg width="19" height="19" viewBox="0 0 19 19" fill="black" xmlns="http://www.w3.org/2000/svg">
<path d="M16.375 9.97607L17.425 11.0336L12.5275 15.9761L9.92505 13.3511L10.975 12.2936L12.5275 13.8536L16.375 9.97607ZM8.80005 3.60107C9.5957 3.60107 10.3588 3.91714 10.9214 4.47975C11.484 5.04236 11.8 5.80542 11.8 6.60107C11.8 7.39672 11.484 8.15979 10.9214 8.72239C10.3588 9.285 9.5957 9.60107 8.80005 9.60107C8.0044 9.60107 7.24134 9.285 6.67873 8.72239C6.11612 8.15979 5.80005 7.39672 5.80005 6.60107C5.80005 5.80542 6.11612 5.04236 6.67873 4.47975C7.24134 3.91714 8.0044 3.60107 8.80005 3.60107ZM8.80005 5.10107C8.40222 5.10107 8.02069 5.25911 7.73939 5.54041C7.45808 5.82172 7.30005 6.20325 7.30005 6.60107C7.30005 6.9989 7.45808 7.38043 7.73939 7.66173C8.02069 7.94304 8.40222 8.10107 8.80005 8.10107C9.19787 8.10107 9.5794 7.94304 9.86071 7.66173C10.142 7.38043 10.3 6.9989 10.3 6.60107C10.3 6.20325 10.142 5.82172 9.86071 5.54041C9.5794 5.25911 9.19787 5.10107 8.80005 5.10107ZM8.80005 10.3511C9.31005 10.3511 9.92505 10.4186 10.6075 10.5461L9.35505 11.7986L8.80005 11.7761C6.57255 11.7761 4.22505 12.8711 4.22505 13.3511V14.1761H8.87505L10.3 15.6011H2.80005V13.3511C2.80005 11.3561 6.79755 10.3511 8.80005 10.3511Z" fill="black"/>
</svg>
